<svg id="SvgjsSvg1014" xmlns="http://www.w3.org/2000/svg" version="1.1" xmlns:xlink="http://www.w3.org/1999/xlink" xmlns:svgjs="http://svgjs.com/svgjs" width="17" height="17"><defs id="SvgjsDefs1015"><clipPath id="SvgjsClipPath1020"><path id="SvgjsPath1019" d="M73 684L73 667L90 667L90 684ZM82 683L82 676L89 676L89 675L82 675L82 668L81 668L81 675L74 675L74 676L81 676L81 683Z " fill="#ffffff"></path></clipPath><clipPath id="SvgjsClipPath1023"><path id="SvgjsPath1022" d="M81 683L81 676L74 676L74 675L81 675L81 668L82 668L82 675L89 675L89 676L82 676L82 683Z " fill="#ffffff"></path></clipPath></defs><path id="SvgjsPath1016" d="M81 683L81 676L74 676L74 675L81 675L81 668L82 668L82 675L89 675L89 676L82 676L82 683Z " fill="#9173e6" transform="matrix(1,0,0,1,-73,-667)"></path><path id="SvgjsPath1017" d="M81 683L81 676L74 676L74 675L81 675L81 668L82 668L82 675L89 675L89 676L82 676L82 683Z " fill="#9173e6" transform="matrix(1,0,0,1,-73,-667)"></path><path id="SvgjsPath1018" d="M81 683L81 676L74 676L74 675L81 675L81 668L82 668L82 675L89 675L89 676L82 676L82 683Z " fill-opacity="0" fill="#ffffff" stroke-dasharray="0" stroke-linejoin="round" stroke-linecap="round" stroke-opacity="1" stroke="#9173e6" stroke-miterlimit="50" stroke-width="2" clip-path="url(&quot;#SvgjsClipPath1020&quot;)" transform="matrix(1,0,0,1,-73,-667)"></path><path id="SvgjsPath1021" d="M81 683L81 676L74 676L74 675L81 675L81 668L82 668L82 675L89 675L89 676L82 676L82 683Z " fill-opacity="0" fill="#ffffff" stroke-dasharray="0" stroke-linejoin="miter" stroke-linecap="butt" stroke-opacity="1" stroke="#5e42b0" stroke-miterlimit="50" stroke-width="6" clip-path="url(&quot;#SvgjsClipPath1023&quot;)" transform="matrix(1,0,0,1,-73,-667)"></path></svg>