<svg id="SvgjsSvg1039" xmlns="http://www.w3.org/2000/svg" version="1.1" xmlns:xlink="http://www.w3.org/1999/xlink" xmlns:svgjs="http://svgjs.com/svgjs" width="10" height="18"><defs id="SvgjsDefs1040"></defs><path id="SvgjsPath1041" d="M107.623 3934L105.22500000000001 3934C102.53000000000002 3934 100.78900000000002 3935.74 100.78900000000002 3938.43L100.78900000000002 3940.47L98.37720000000002 3940.47C98.16870000000002 3940.47 98.00000000000001 3940.64 98.00000000000001 3940.8399999999997L98.00000000000001 3943.7999999999997C98.00000000000001 3943.9999999999995 98.16900000000001 3944.1699999999996 98.37720000000002 3944.1699999999996L100.78900000000002 3944.1699999999996L100.78900000000002 3951.6299999999997C100.78900000000002 3951.8399999999997 100.95700000000002 3951.9999999999995 101.16600000000001 3951.9999999999995L104.31200000000001 3951.9999999999995C104.52100000000002 3951.9999999999995 104.68900000000001 3951.8399999999997 104.68900000000001 3951.6299999999997L104.68900000000001 3944.1699999999996L107.509 3944.1699999999996C107.718 3944.1699999999996 107.886 3943.9999999999995 107.886 3943.7999999999997L107.887 3940.8399999999997C107.887 3940.74 107.848 3940.6499999999996 107.777 3940.5799999999995C107.706 3940.5099999999993 107.61 3940.4699999999993 107.51 3940.4699999999993L104.69000000000001 3940.4699999999993L104.69000000000001 3938.7399999999993C104.69000000000001 3937.9099999999994 104.89300000000001 3937.4899999999993 106.007 3937.4899999999993L107.623 3937.4899999999993C107.831 3937.4899999999993 108 3937.3199999999993 108 3937.1199999999994L108 3934.3699999999994C108 3934.1699999999996 107.831 3933.9999999999995 107.623 3933.9999999999995Z " fill="#ffffff" transform="matrix(1,0,0,1,-98,-3934)"></path></svg>