<svg id="SvgjsSvg1045" xmlns="http://www.w3.org/2000/svg" version="1.1" xmlns:xlink="http://www.w3.org/1999/xlink" xmlns:svgjs="http://svgjs.com/svgjs" width="17" height="17"><defs id="SvgjsDefs1046"></defs><path id="SvgjsPath1047" d="M219.856 3934C221.04 3934 222 3934.96 222 3936.14L222 3948.8599999999997C222 3950.0399999999995 221.04 3950.9999999999995 219.856 3950.9999999999995L207.144 3950.9999999999995C205.96 3950.9999999999995 205 3950.0399999999995 205 3948.8599999999997L205 3936.14C205 3934.96 205.96 3934 207.144 3934L219.856 3934C219.856 3934 218.673 3934 219.856 3934ZM220.023 3947.95L220.023 3942.5899999999997C220.023 3941.9999999999995 219.47299999999998 3941.5099999999998 218.88 3941.5099999999998L218.274 3941.5099999999998C218.232 3941.5099999999998 218.193 3941.52 218.155 3941.52C217.93 3941.57 217.784 3941.73 217.769 3941.94C217.767 3941.9700000000003 217.768 3942.01 217.774 3942.05C217.777 3942.07 217.776 3942.1000000000004 217.779 3942.1200000000003C217.797 3942.28 217.81199999999998 3942.4300000000003 217.81199999999998 3942.59C217.81199999999998 3944.96 215.896 3946.88 213.528 3946.88C213.50858 3946.88 213.49307 3946.87442 213.47562 3946.8716C213.48497999999998 3946.87064 213.49340999999998 3946.87 213.5 3946.87C211.169 3946.83 209.349 3944.93 209.349 3942.5899999999997C209.349 3942.43 209.304 3942.2799999999997 209.322 3942.12C209.325 3942.1 209.266 3942.0699999999997 209.269 3942.0499999999997C209.274 3942.0099999999998 209.276 3941.97 209.273 3941.9399999999996C209.257 3941.7299999999996 209.112 3941.5699999999997 208.886 3941.5199999999995C208.849 3941.5199999999995 208.809 3941.5099999999993 208.767 3941.5099999999993C208.432 3941.5099999999993 208.161 3941.5099999999993 208.161 3941.5099999999993C207.569 3941.5099999999993 206.977 3941.999999999999 206.977 3942.5899999999992L206.977 3947.9499999999994C206.977 3948.5399999999995 207.56900000000002 3949.0199999999995 208.161 3949.0199999999995L218.88 3949.0199999999995C219.47299999999998 3949.0199999999995 220.023 3948.5399999999995 220.023 3947.9499999999994ZM220.024 3938.07L220.024 3937.05C220.024 3936.46 219.543 3935.98 218.952 3935.98L217.933 3935.98C217.34 3935.98 216.861 3936.46 216.861 3937.05L216.861 3938.07C216.861 3938.6600000000003 217.34 3939.1400000000003 217.933 3939.1400000000003L218.952 3939.1400000000003C219.543 3939.1400000000003 220.023 3938.6600000000003 220.023 3938.07ZM210.935 3942.57C210.935 3943.96 212.091 3945.09 213.517 3945.09C214.94299999999998 3945.09 216.09799999999998 3943.96 216.09799999999998 3942.57C216.09799999999998 3941.17 214.94299999999998 3940.04 213.517 3940.04C212.091 3940.04 210.935 3941.17 210.935 3942.57Z " fill="#ffffff" transform="matrix(1,0,0,1,-205,-3934)"></path></svg>