<svg id="SvgjsSvg1008" xmlns="http://www.w3.org/2000/svg" version="1.1" xmlns:xlink="http://www.w3.org/1999/xlink" xmlns:svgjs="http://svgjs.com/svgjs" width="137" height="25"><defs id="SvgjsDefs1009"></defs><path id="SvgjsPath1010" d="M116.961 49.9531L102.577 39.3349C102.179 39.0395 101.65299999999999 39 101.217 39.2335C100.78 39.4626 100.507 39.9255 100.507 40.4322L100.50800000000001 47.0032L95.73750000000001 47.0032C95.30930000000001 47.0032 94.9621 47.3924 94.9621 47.8727C94.9621 48.353100000000005 95.30930000000001 48.7426 95.73750000000001 48.7426L100.50800000000001 48.7426L100.50900000000001 50.1327L92.77530000000002 50.1327C92.34710000000001 50.1327 92.00000000000001 50.522 92.00000000000001 51.0022C92.00000000000001 51.482400000000005 92.34710000000001 51.871900000000004 92.77530000000002 51.871900000000004L100.50900000000001 51.871900000000004L100.50900000000001 53.3076L95.73750000000001 53.3076C95.30930000000001 53.3076 94.9621 53.6969 94.9621 54.1773C94.9621 54.657500000000006 95.30930000000001 55.0465 95.73750000000001 55.0465L100.51 55.0465L100.51100000000001 61.6511C100.51100000000001 62.158 100.78500000000001 62.6163 101.221 62.85C101.409 62.9514 101.61500000000001 63.0001 101.82000000000001 63.0001C102.09 63.0001 102.355 62.9164 102.58200000000001 62.7486L116.965 52.1527C117.307 51.9012 117.513 51.491400000000006 117.513 51.0596C117.504 50.6144 117.30300000000001 50.2043 116.961 49.953100000000006ZM203.537 55.2382C203.108 55.0364 202.65800000000002 55.0959 202.213 55.4263C202.018 55.5802 201.823 55.73 201.629 55.8761C201.445 56.0143 201.23499999999999 56.144800000000004 201.004 56.2637C200.777 56.3804 200.509 56.4804 200.209 56.5614C199.909 56.641999999999996 199.552 56.6905 199.151 56.7051L199.047 56.7061C198.315 56.7061 197.662 56.5539 197.106 56.2537C196.518 55.9375 196.021 55.509 195.62699999999998 54.979C195.23 54.4456 194.926 53.8242 194.72299999999998 53.132C194.51899999999998 52.437 194.416 51.7119 194.416 50.9767C194.416 50.24 194.509 49.5209 194.691 48.8395C194.872 48.1617 195.143 47.5553 195.496 47.036500000000004C195.846 46.523 196.288 46.1028 196.81 45.787000000000006C197.325 45.47580000000001 197.923 45.31790000000001 198.59 45.31790000000001C199.19 45.31790000000001 199.697 45.40940000000001 200.098 45.58990000000001C200.51600000000002 45.77850000000001 200.883 45.97590000000001 201.18800000000002 46.17770000000001C201.508 46.389500000000005 201.80300000000003 46.56840000000001 202.062 46.70940000000001C202.37400000000002 46.87910000000001 202.72400000000002 46.88360000000001 203.025 46.74490000000001C203.214 46.674200000000006 203.381 46.57470000000001 203.52100000000002 46.449000000000005C203.65900000000002 46.32490000000001 203.75400000000002 46.2167 203.82000000000002 46.1037C203.85200000000003 46.03830000000001 203.895 45.931400000000004 203.95200000000003 45.7828C204.01800000000003 45.6086 204.03300000000002 45.3992 203.99800000000002 45.164300000000004C203.96200000000002 44.8883 203.806 44.5829 203.52200000000002 44.229800000000004C203.252 43.896100000000004 202.877 43.575900000000004 202.40800000000002 43.2781C201.943 42.9837 201.38600000000002 42.7334 200.75300000000001 42.5351C200.11700000000002 42.3361 199.412 42.2354 198.657 42.2354C197.595 42.2354 196.59 42.436299999999996 195.67100000000002 42.832899999999995C194.75000000000003 43.230399999999996 193.943 43.81079999999999 193.26900000000003 44.558099999999996C192.59800000000004 45.303 192.05900000000003 46.225899999999996 191.66700000000003 47.3005C191.27500000000003 48.3737 191.07000000000002 49.6095 191.05400000000003 50.9741C191.03900000000004 52.3422 191.23400000000004 53.5844 191.63300000000004 54.6651C192.03300000000004 55.7492 192.60400000000004 56.6848 193.33000000000004 57.4465C194.05700000000004 58.2087 194.93000000000004 58.7964 195.92500000000004 59.1925C196.91700000000003 59.5874 198.00400000000005 59.787800000000004 199.15500000000003 59.787800000000004C199.95700000000002 59.787800000000004 200.69100000000003 59.674400000000006 201.33600000000004 59.4513C201.97700000000003 59.2284 202.53000000000003 58.9581 202.98000000000005 58.6473C203.43400000000005 58.3337 203.79200000000006 58.0054 204.04600000000005 57.6713C204.31100000000004 57.3215 204.45800000000006 57.0426 204.49600000000004 56.808600000000006C204.53100000000003 56.50450000000001 204.47800000000004 56.20530000000001 204.34000000000003 55.91910000000001C204.19500000000002 55.62340000000001 203.92200000000003 55.392500000000005 203.53700000000003 55.238200000000006ZM184.325 43.5719C184.236 43.282199999999996 184.048 43.0231 183.765 42.801899999999996C183.47899999999998 42.58 183.09799999999998 42.467499999999994 182.631 42.467499999999994C182.164 42.467499999999994 181.783 42.57999999999999 181.497 42.80219999999999C181.21300000000002 43.023599999999995 181.025 43.282599999999995 180.93900000000002 43.56669999999999L176.28300000000002 57.52589999999999C176.042 58.24699999999999 176.096 58.777499999999996 176.441 59.103199999999994C176.75900000000001 59.403299999999994 177.183 59.555299999999995 177.703 59.555299999999995C178.222 59.555299999999995 178.627 59.423199999999994 178.90800000000002 59.162299999999995C179.173 58.915499999999994 179.382 58.586099999999995 179.52900000000002 58.184599999999996L180.47100000000003 55.6534L184.77100000000004 55.6534L185.80300000000005 58.3037C185.93400000000005 58.640499999999996 186.12500000000006 58.9356 186.37200000000004 59.1809C186.62400000000005 59.4305 186.99400000000006 59.557 187.47100000000003 59.557L187.55900000000003 59.5553C188.07900000000004 59.5553 188.50500000000002 59.3988 188.82300000000004 59.089200000000005C189.16400000000004 58.75840000000001 189.23300000000003 58.249300000000005 189.02500000000003 57.57150000000001ZM146.652 42.4675C146.03099999999998 42.4675 145.588 42.627 145.33599999999998 42.9416C145.094 43.2436 144.97099999999998 43.5636 144.97099999999998 43.8926L144.97099999999998 52.4864C144.97099999999998 53.1516 144.92699999999996 53.7486 144.83899999999997 54.260000000000005C144.75399999999996 54.752500000000005 144.59499999999997 55.172700000000006 144.36499999999998 55.508300000000006C144.14 55.83800000000001 143.831 56.0949 143.44699999999997 56.27120000000001C143.05399999999997 56.45110000000001 142.54299999999998 56.542300000000004 141.92799999999997 56.542300000000004C141.29799999999997 56.542300000000004 140.77599999999998 56.447500000000005 140.37699999999998 56.2599C139.98499999999999 56.0765 139.67199999999997 55.8127 139.44599999999997 55.475300000000004C139.21399999999997 55.12950000000001 139.04699999999997 54.70290000000001 138.94799999999998 54.207800000000006C138.84599999999998 53.69870000000001 138.79399999999998 53.1193 138.79399999999998 52.4864L138.79399999999998 43.8926C138.79399999999998 43.5275 138.66099999999997 43.196400000000004 138.398 42.9078C138.131 42.6159 137.69899999999998 42.4675 137.113 42.4675C136.525 42.4675 136.091 42.624900000000004 135.824 42.9362C135.56400000000002 43.239399999999996 135.43200000000002 43.5613 135.43200000000002 43.8926L135.43200000000002 53.9266C135.43200000000002 54.9043 135.627 55.7641 136.01200000000003 56.4816C136.39400000000003 57.1941 136.89600000000002 57.7953 137.50500000000002 58.2689C138.11100000000002 58.739200000000004 138.80700000000002 59.0949 139.574 59.3263C140.33700000000002 59.5553 141.121 59.671600000000005 141.905 59.671600000000005C142.704 59.671600000000005 143.496 59.5553 144.25900000000001 59.3263C145.02700000000002 59.0947 145.72000000000003 58.734300000000005 146.31900000000002 58.2552C146.92000000000002 57.7738 147.41100000000003 57.1683 147.77700000000002 56.4549C148.14600000000002 55.737300000000005 148.33300000000003 54.886500000000005 148.33300000000003 53.9266L148.33300000000003 43.8926C148.33300000000003 43.5275 148.20000000000002 43.196400000000004 147.93700000000004 42.9078C147.67000000000004 42.6159 147.23800000000003 42.4675 146.65200000000004 42.4675ZM158.477 52.363C158.498 52.3594 158.518 52.355199999999996 158.538 52.3509L158.995 52.2571C160.04500000000002 52.0153 160.894 51.515 161.516 50.7701C162.143 50.0202 162.46099999999998 48.933099999999996 162.46099999999998 47.5394C162.46099999999998 46.6333 162.338 45.8596 162.09499999999997 45.2397C161.84699999999998 44.610099999999996 161.47499999999997 44.0982 160.98599999999996 43.7189C160.50399999999996 43.3455 159.89699999999996 43.078199999999995 159.18399999999997 42.9251C158.48699999999997 42.7755 157.67699999999996 42.699600000000004 156.77899999999997 42.699600000000004L153.36499999999998 42.699600000000004C152.96599999999998 42.699600000000004 152.63299999999998 42.720400000000005 152.373 42.7603C152.08499999999998 42.8057 151.864 42.892 151.69799999999998 43.024300000000004C151.52599999999998 43.162600000000005 151.40599999999998 43.357800000000005 151.34199999999998 43.60360000000001C151.283 43.82450000000001 151.255 44.10130000000001 151.255 44.450100000000006L151.255 58.1302C151.255 58.459900000000005 151.378 58.779900000000005 151.62 59.0812C151.872 59.396 152.299 59.5553 152.891 59.5553C153.47299999999998 59.5553 153.91199999999998 59.409000000000006 154.19299999999998 59.120000000000005C154.474 58.8312 154.617 58.498200000000004 154.617 58.1302L154.617 53.054L160.24599999999998 59.1434C160.515 59.4199 160.86399999999998 59.5603 161.283 59.5603C161.32999999999998 59.5603 161.378 59.558099999999996 161.428 59.5548C161.9 59.519800000000004 162.31 59.3268 162.647 58.9805C162.98999999999998 58.6282 163.155 58.2143 163.138 57.7504C163.122 57.2936 162.941 56.885 162.601 56.535199999999996ZM132.193 51.3624C131.858 50.993900000000004 131.42800000000003 50.6453 130.917 50.3263C130.41400000000002 50.0138 129.813 49.69690000000001 129.13 49.3843C128.856 49.2595 128.548 49.126900000000006 128.207 48.98650000000001C127.88 48.85230000000001 127.565 48.686400000000006 127.26899999999999 48.493500000000004C126.97999999999999 48.305400000000006 126.73499999999999 48.086600000000004 126.53999999999999 47.842200000000005C126.359 47.6174 126.27099999999999 47.358700000000006 126.27099999999999 47.051700000000004C126.27099999999999 46.864200000000004 126.31199999999998 46.669700000000006 126.39099999999999 46.4724C126.47099999999999 46.2729 126.58399999999999 46.0912 126.725 45.9322C126.865 45.7748 127.038 45.6424 127.24 45.5389C127.616 45.345299999999995 128.135 45.347 128.609 45.494499999999995C128.846 45.5682 129.071 45.657999999999994 129.279 45.7606C129.488 45.8643 129.689 45.980799999999995 129.877 46.107C130.071 46.2373 130.24200000000002 46.3564 130.375 46.45C130.509 46.5679 130.679 46.646800000000006 130.882 46.6846C131.074 46.721000000000004 131.273 46.716100000000004 131.473 46.6719C131.669 46.6281 131.859 46.5483 132.037 46.4348C132.221 46.3181 132.377 46.158100000000005 132.50300000000001 45.954100000000004C132.733 45.555400000000006 132.764 45.1281 132.597 44.6848C132.441 44.270500000000006 132.145 43.8843 131.71800000000002 43.5367C131.30300000000003 43.1983 130.776 42.913500000000006 130.15300000000002 42.688700000000004C129.532 42.4656 128.848 42.34440000000001 128.122 42.3286L127.97200000000001 42.3264C127.37100000000001 42.3264 126.772 42.416 126.19200000000001 42.5928C125.56 42.7849 124.986 43.077999999999996 124.486 43.46319999999999C123.98100000000001 43.852199999999996 123.57000000000001 44.348699999999994 123.262 44.94029999999999C122.953 45.53459999999999 122.797 46.22919999999999 122.797 47.00489999999999C122.797 47.73159999999999 122.925 48.37319999999999 123.17999999999999 48.91159999999999C123.431 49.445499999999996 123.77499999999999 49.91389999999999 124.201 50.302899999999994C124.621 50.686699999999995 125.121 51.022499999999994 125.68599999999999 51.300399999999996C126.237 51.5727 126.841 51.8294 127.485 52.0652C127.703 52.1406 127.949 52.246199999999995 128.216 52.379799999999996C128.477 52.5098 128.72 52.6752 128.93900000000002 52.8709C129.15400000000002 53.064 129.342 53.293 129.496 53.5522C129.64000000000001 53.7945 129.714 54.0847 129.714 54.4141C129.714 54.7679 129.652 55.084799999999994 129.53 55.3564C129.407 55.6291 129.243 55.8583 129.041 56.0382C128.835 56.2214 128.595 56.3639 128.328 56.4622C127.727 56.685500000000005 127.08200000000001 56.6387 126.56 56.4816C126.265 56.3932 125.98100000000001 56.2769 125.71600000000001 56.1367C125.44800000000001 55.9954 125.19000000000001 55.8368 124.94900000000001 55.6641C124.69900000000001 55.4854 124.46000000000001 55.3181 124.23100000000001 55.1605C123.933 54.9634 123.611 54.8839 123.26400000000001 54.93C122.906 54.9775 122.60000000000001 55.2021 122.36200000000001 55.5868C122.21700000000001 55.792899999999996 122.13900000000001 56.0443 122.13000000000001 56.334999999999994C122.12100000000001 56.611999999999995 122.17600000000002 56.900099999999995 122.293 57.190999999999995C122.40700000000001 57.477 122.59200000000001 57.7613 122.843 58.035C123.093 58.308899999999994 123.429 58.554899999999996 123.83800000000001 58.7643C124.28200000000001 59.0006 124.81400000000001 59.2204 125.42 59.4173C125.95100000000001 59.589999999999996 126.522 59.677699999999994 127.116 59.677699999999994C127.211 59.677699999999994 127.307 59.675599999999996 127.4 59.671299999999995C129.30100000000002 59.608 130.741 59.08219999999999 131.68 58.109199999999994C132.62 57.136199999999995 133.112 55.83989999999999 133.143 54.2574C133.159 53.6616 133.09 53.1211 132.94 52.6506C132.788 52.1737 132.537 51.7405 132.19299999999998 51.362399999999994ZM103.196 59.129L103.196 55.046499999999995L105.788 55.046499999999995C106.216 55.046499999999995 106.563 54.65749999999999 106.563 54.177299999999995C106.563 53.69689999999999 106.21600000000001 53.307599999999994 105.788 53.307599999999994L103.189 53.307599999999994L103.17999999999999 51.8719L108.327 51.8719C108.755 51.8719 109.102 51.4824 109.102 51.002199999999995C109.102 50.52199999999999 108.75500000000001 50.13269999999999 108.327 50.13269999999999L103.169 50.13269999999999L103.161 48.742599999999996L105.788 48.742599999999996C106.216 48.742599999999996 106.563 48.3531 106.563 47.872699999999995C106.563 47.392399999999995 106.21600000000001 47.00319999999999 105.788 47.00319999999999L103.14999999999999 47.00319999999999L103.12499999999999 43.046099999999996L113.95299999999999 51.0374ZM215.656 56.2871L210.397 56.2871L210.397 52.262600000000006L215.42999999999998 52.262600000000006C215.97099999999998 52.262600000000006 216.35699999999997 52.149300000000004 216.60999999999999 51.91680000000001C216.867 51.68120000000001 216.99699999999999 51.29430000000001 216.99699999999999 50.76750000000001C216.99699999999999 50.24430000000001 216.869 49.851700000000015 216.61599999999999 49.60070000000001C216.36499999999998 49.35210000000001 215.96599999999998 49.22640000000001 215.42999999999998 49.22640000000001L210.397 49.22640000000001L210.397 45.73580000000001L215.656 45.73580000000001C216.139 45.73580000000001 216.525 45.62280000000001 216.803 45.39970000000001C217.099 45.16220000000001 217.24 44.76250000000001 217.224 44.21090000000001C217.206 43.67020000000001 217.064 43.27720000000001 216.79999999999998 43.043000000000006C216.54199999999997 42.815400000000004 216.165 42.699600000000004 215.67799999999997 42.699600000000004L208.69399999999996 42.699600000000004C208.15899999999996 42.699600000000004 207.76199999999997 42.8055 207.48199999999997 43.022000000000006C207.18499999999997 43.25000000000001 207.03499999999997 43.64470000000001 207.03499999999997 44.19460000000001L207.03499999999997 57.82840000000001C207.03499999999997 58.39820000000001 207.19599999999997 58.79900000000001 207.51199999999997 59.018800000000006C207.80299999999997 59.220600000000005 208.20099999999996 59.32300000000001 208.69399999999996 59.32300000000001L215.65599999999995 59.32300000000001C216.28099999999995 59.32300000000001 216.72199999999995 59.217800000000004 217.00299999999996 59.00090000000001C217.29899999999995 58.77230000000001 217.44999999999996 58.37010000000001 217.44999999999996 57.80480000000001C217.44999999999996 57.239900000000006 217.29899999999995 56.837700000000005 217.00299999999996 56.60940000000001C216.72199999999995 56.392700000000005 216.28099999999995 56.28710000000001 215.65599999999995 56.28710000000001ZM174.471 42.6996L167.486 42.6996C166.952 42.6996 166.55499999999998 42.805499999999995 166.274 43.022C165.978 43.25 165.828 43.6447 165.828 44.1946L165.828 58.3855C165.828 58.6646 165.961 58.9328 166.223 59.1833C166.484 59.433600000000006 166.89700000000002 59.5553 167.48600000000002 59.5553C168.07200000000003 59.5553 168.491 59.435500000000005 168.76700000000002 59.188300000000005C169.04800000000003 58.93710000000001 169.19000000000003 58.666900000000005 169.19000000000003 58.38550000000001L169.19000000000003 52.262600000000006L173.77000000000004 52.262600000000006C174.31200000000004 52.262600000000006 174.69800000000004 52.149300000000004 174.95100000000005 51.91680000000001C175.20800000000006 51.68120000000001 175.33800000000005 51.29430000000001 175.33800000000005 50.76750000000001C175.33800000000005 50.26150000000001 175.21100000000004 49.873700000000014 174.94400000000005 49.60100000000001C174.65000000000003 49.352100000000014 174.25500000000005 49.22640000000001 173.77000000000004 49.22640000000001L169.19000000000003 49.22640000000001L169.19000000000003 45.73580000000001L174.449 45.73580000000001C174.93200000000002 45.73580000000001 175.318 45.62280000000001 175.596 45.39970000000001C175.892 45.16170000000001 176.03300000000002 44.76230000000001 176.016 44.21090000000001C175.999 43.67020000000001 175.856 43.27720000000001 175.59199999999998 43.043000000000006C175.33499999999998 42.815400000000004 174.958 42.699600000000004 174.47099999999998 42.699600000000004ZM154.617 49.4585L154.617 45.7823L156.779 45.7823C157.096 45.7823 157.408 45.8088 157.704 45.8605C157.984 45.9099 158.233 46.0019 158.443 46.1333C158.645 46.2611 158.80100000000002 46.4353 158.92000000000002 46.6653C159.03900000000002 46.895900000000005 159.09900000000002 47.197900000000004 159.09900000000002 47.5626C159.09900000000002 48.3449 158.91600000000003 48.857200000000006 158.556 49.08410000000001C158.162 49.332300000000004 157.56400000000002 49.45850000000001 156.77900000000002 49.45850000000001ZM181.178 52.5941L182.631 47.784499999999994L184.084 52.5941ZM227.229 42.7464L224.96800000000002 42.7464C224.59400000000002 42.7464 224.311 42.8877 224.126 43.1668C223.957 43.4225 223.875 43.8423 223.875 44.4501C223.875 45.093199999999996 223.935 45.497099999999996 224.062 45.7204C224.162 45.8974 224.377 46.107499999999995 224.833 46.107499999999995L225.72899999999998 46.107499999999995L225.72899999999998 58.432199999999995C225.72899999999998 58.944599999999994 226.01299999999998 59.555299999999995 227.36399999999998 59.555299999999995C228.71599999999998 59.555299999999995 228.99999999999997 58.944599999999994 228.99999999999997 58.432199999999995L228.99999999999997 44.171699999999994C228.99999999999997 43.52159999999999 228.69299999999998 42.746399999999994 227.22899999999998 42.746399999999994Z " fill="#ffffff" transform="matrix(1,0,0,1,-92,-39)"></path></svg>