<svg id="SvgjsSvg1042" xmlns="http://www.w3.org/2000/svg" version="1.1" xmlns:xlink="http://www.w3.org/1999/xlink" xmlns:svgjs="http://svgjs.com/svgjs" width="18" height="15"><defs id="SvgjsDefs1043"></defs><path id="SvgjsPath1044" d="M166.504 3935.28C165.789 3935.71 164.999 3936.03 164.15699999999998 3936.2000000000003C163.48399999999998 3935.4600000000005 162.52499999999998 3935.0000000000005 161.462 3935.0000000000005C159.423 3935.0000000000005 157.76899999999998 3936.7000000000003 157.76899999999998 3938.7900000000004C157.76899999999998 3939.0800000000004 157.80199999999996 3939.3700000000003 157.86499999999998 3939.6500000000005C154.796 3939.4900000000007 152.075 3937.9800000000005 150.254 3935.6900000000005C149.93599999999998 3936.2500000000005 149.755 3936.9000000000005 149.755 3937.6000000000004C149.755 3938.9100000000003 150.40699999999998 3940.07 151.397 3940.7500000000005C150.792 3940.7300000000005 150.22299999999998 3940.5600000000004 149.724 3940.2700000000004L149.724 3940.3200000000006C149.724 3942.1600000000008 150.998 3943.6900000000005 152.68599999999998 3944.0300000000007C152.37699999999998 3944.120000000001 152.051 3944.1700000000005 151.71299999999997 3944.1700000000005C151.47499999999997 3944.1700000000005 151.24399999999997 3944.1400000000003 151.01799999999997 3944.1000000000004C151.48799999999997 3945.6000000000004 152.85099999999997 3946.7000000000003 154.46699999999998 3946.7300000000005C153.20399999999998 3947.7500000000005 151.611 3948.3500000000004 149.88099999999997 3948.3500000000004C149.58299999999997 3948.3500000000004 149.28899999999996 3948.3300000000004 148.99999999999997 3948.3C150.63499999999996 3949.3700000000003 152.57499999999996 3950 154.66099999999997 3950C161.45299999999997 3950 165.16699999999997 3944.23 165.16699999999997 3939.22L165.15499999999997 3938.73C165.878 3938.2 166.50599999999997 3937.53 166.99999999999997 3936.77C166.33799999999997 3937.08 165.62699999999998 3937.28 164.87999999999997 3937.37C165.64199999999997 3936.9 166.22699999999998 3936.16 166.50399999999996 3935.2799999999997Z " fill="#ffffff" transform="matrix(1,0,0,1,-149,-3935)"></path></svg>