<svg id="SvgjsSvg1075" xmlns="http://www.w3.org/2000/svg" version="1.1" xmlns:xlink="http://www.w3.org/1999/xlink" xmlns:svgjs="http://svgjs.com/svgjs" width="24" height="25"><defs id="SvgjsDefs1076"></defs><path id="SvgjsPath1077" d="M446.094 6234.62C447.699 6234.62 449 6235.96 449 6237.599999999999L449 6255.219999999999C449 6256.86 447.699 6258.19 446.094 6258.19L428.861 6258.19C427.256 6258.19 425.955 6256.86 425.955 6255.219999999999L425.955 6237.599999999999C425.955 6235.959999999999 427.256 6234.62 428.861 6234.62L446.094 6234.62C446.094 6234.62 444.49 6234.62 446.094 6234.62ZM446.321 6253.96L446.321 6246.53C446.321 6245.71 445.574 6245.04 444.771 6245.04L443.95 6245.04C443.892 6245.04 443.839 6245.04 443.788 6245.05C443.482 6245.110000000001 443.285 6245.34 443.265 6245.63C443.26099999999997 6245.68 443.264 6245.7300000000005 443.27099999999996 6245.78C443.275 6245.8099999999995 443.27399999999994 6245.849999999999 443.27799999999996 6245.88C443.30199999999996 6246.1 443.323 6246.31 443.323 6246.53C443.322 6249.8099999999995 440.72499999999997 6252.469999999999 437.51599999999996 6252.469999999999C437.50183999999996 6252.469999999999 437.48922 6252.469999999999 437.477 6252.469999999999C437.477 6252.469999999999 431.84999999999997 6249.78 431.84999999999997 6246.53C431.84999999999997 6246.3099999999995 431.78999999999996 6246.099999999999 431.81399999999996 6245.88C431.818 6245.85 431.73699999999997 6245.81 431.74199999999996 6245.78C431.74899999999997 6245.73 431.751 6245.679999999999 431.74699999999996 6245.63C431.72599999999994 6245.34 431.52899999999994 6245.11 431.22299999999996 6245.05C431.17299999999994 6245.04 431.11899999999997 6245.04 431.06199999999995 6245.04C430.60799999999995 6245.04 430.23999999999995 6245.04 430.23999999999995 6245.04C429.43699999999995 6245.04 428.63399999999996 6245.71 428.63399999999996 6246.53L428.63399999999996 6253.96C428.63399999999996 6254.78 429.43699999999995 6255.45 430.23999999999995 6255.45L444.77099999999996 6255.45C445.57399999999996 6255.45 446.32099999999997 6254.78 446.32099999999997 6253.96ZM446.321 6240.26L446.321 6238.85C446.321 6238.030000000001 445.67 6237.360000000001 444.86800000000005 6237.360000000001L443.4870000000001 6237.360000000001C442.6840000000001 6237.360000000001 442.0330000000001 6238.030000000001 442.0330000000001 6238.85L442.0330000000001 6240.26C442.0330000000001 6241.08 442.6840000000001 6241.75 443.4870000000001 6241.75L444.86800000000005 6241.75C445.6700000000001 6241.75 446.321 6241.08 446.321 6240.26ZM434 6246.5C434 6248.43 435.567 6250 437.5 6250C439.433 6250 441 6248.43 441 6246.5C441 6244.57 439.433 6243 437.5 6243C435.567 6243 434 6244.57 434 6246.5Z " fill="#ffffff" transform="matrix(1,0,0,1,-425,-6234)"></path></svg>