<svg id="SvgjsSvg1072" xmlns="http://www.w3.org/2000/svg" version="1.1" xmlns:xlink="http://www.w3.org/1999/xlink" xmlns:svgjs="http://svgjs.com/svgjs" width="27" height="22"><defs id="SvgjsDefs1073"></defs><path id="SvgjsPath1074" d="M394.255 6235.41C393.18399999999997 6236.04 391.998 6236.51 390.736 6236.75C389.72499999999997 6235.67 388.287 6235 386.694 6235C383.634 6235 381.154 6237.49 381.154 6240.55C381.154 6240.99 381.203 6241.41 381.29699999999997 6241.820000000001C376.69399999999996 6241.590000000001 372.61299999999994 6239.380000000001 369.881 6236.02C369.404 6236.830000000001 369.13199999999995 6237.790000000001 369.13199999999995 6238.81C369.13199999999995 6240.740000000001 370.11099999999993 6242.4400000000005 371.59499999999997 6243.43C370.688 6243.400000000001 369.83399999999995 6243.150000000001 369.087 6242.7300000000005L369.087 6242.8C369.087 6245.49 370.996 6247.74 373.529 6248.25C373.065 6248.38 372.576 6248.45 372.07 6248.45C371.712 6248.45 371.367 6248.41 371.027 6248.34C371.73199999999997 6250.55 373.777 6252.16 376.2 6252.2C374.305 6253.69 371.916 6254.58 369.322 6254.58C368.874 6254.58 368.434 6254.55 368 6254.5C370.452 6256.08 373.362 6257 376.491 6257C386.679 6257 392.25 6248.54 392.25 6241.19L392.232 6240.469999999999C393.31800000000004 6239.69 394.25800000000004 6238.719999999999 395 6237.599999999999C394.006 6238.039999999999 392.94 6238.339999999999 391.82 6238.48C392.96299999999997 6237.79 393.84 6236.7 394.255 6235.41Z " fill="#ffffff" transform="matrix(1,0,0,1,-368,-6235)"></path></svg>