<svg id="SvgjsSvg1069" xmlns="http://www.w3.org/2000/svg" version="1.1" xmlns:xlink="http://www.w3.org/1999/xlink" xmlns:svgjs="http://svgjs.com/svgjs" width="15" height="27"><defs id="SvgjsDefs1070"></defs><path id="SvgjsPath1071" d="M325.661 6233L322.25600000000003 6233C318.43100000000004 6233 315.959 6235.61 315.959 6239.64L315.959 6242.71L312.535 6242.71C312.24 6242.71 312 6242.95 312 6243.26L312 6247.7C312 6248 312.24 6248.25 312.535 6248.25L315.959 6248.25L315.959 6259.45C315.959 6259.75 316.198 6260 316.494 6260L320.96000000000004 6260C321.25600000000003 6260 321.49600000000004 6259.75 321.49600000000004 6259.45L321.49600000000004 6248.25L325.49800000000005 6248.25C325.79400000000004 6248.25 326.03400000000005 6248 326.03400000000005 6247.7L326.035 6243.26C326.035 6243.110000000001 325.97900000000004 6242.97 325.879 6242.87C325.778 6242.7699999999995 325.642 6242.71 325.5 6242.71L321.496 6242.71L321.496 6240.11C321.496 6238.86 321.78499999999997 6238.23 323.366 6238.23L325.65999999999997 6238.23C325.95599999999996 6238.23 326.195 6237.98 326.195 6237.679999999999L326.195 6233.5599999999995C326.195 6233.249999999999 325.956 6233.009999999999 325.661 6232.999999999999Z " fill="#ffffff" transform="matrix(1,0,0,1,-312,-6233)"></path></svg>