<svg id="SvgjsSvg1051" xmlns="http://www.w3.org/2000/svg" version="1.1" xmlns:xlink="http://www.w3.org/1999/xlink" xmlns:svgjs="http://svgjs.com/svgjs" width="189" height="33"><defs id="SvgjsDefs1052"></defs><path id="SvgjsPath1053" d="M54.4348 67.0604L34.5921 52.4605C34.0432 52.054500000000004 33.3173 52.0001 32.7152 52.321400000000004C32.1133 52.636300000000006 31.735500000000002 53.27290000000001 31.735500000000002 53.969500000000004L31.7373 63.00450000000001L25.156200000000002 63.00450000000001C24.5654 63.00450000000001 24.0865 63.53990000000001 24.0865 64.2001C24.0865 64.86070000000001 24.5654 65.3961 25.156200000000002 65.3961L31.7378 65.3961L31.7381 67.3078L21.0696 67.3078C20.4788 67.3078 20 67.8428 20 68.503C20 69.1636 20.4788 69.699 21.0696 69.699L31.7386 69.699L31.739 71.6729L25.156200000000002 71.6729C24.5654 71.6729 24.0865 72.2083 24.0865 72.8689C24.0865 73.5295 24.5654 74.0641 25.156200000000002 74.0641L31.739500000000003 74.0641L31.741300000000003 83.14529999999999C31.741300000000003 83.84219999999999 32.1191 84.4724 32.7212 84.79369999999999C32.9808 84.93319999999999 33.2642 84.99989999999998 33.5474 84.99989999999998C33.919200000000004 84.99989999999998 34.2852 84.88519999999998 34.598000000000006 84.65469999999998L54.44080000000001 70.08519999999997C54.91290000000001 69.73909999999997 55.19620000000001 69.17559999999997 55.19620000000001 68.58209999999997C55.18440000000001 67.96989999999997 54.90700000000001 67.40599999999996 54.43480000000001 67.06039999999997ZM173.873 74.3277C173.28099999999998 74.05019999999999 172.66 74.13199999999999 172.046 74.5864C171.777 74.7978 171.50799999999998 75.00359999999999 171.24099999999999 75.2046C170.986 75.395 170.696 75.5743 170.378 75.7373C170.064 75.8982 169.696 76.03580000000001 169.28099999999998 76.14710000000001C168.867 76.25810000000001 168.37399999999997 76.32450000000001 167.82199999999997 76.3447L167.67699999999996 76.3458C166.66799999999998 76.3458 165.76699999999997 76.1366 164.99999999999997 75.7238C164.18999999999997 75.2893 163.50299999999996 74.7 162.95999999999998 73.97109999999999C162.41199999999998 73.2378 161.99299999999997 72.3834 161.71299999999997 71.4318C161.43199999999996 70.47579999999999 161.28899999999996 69.4789 161.28899999999996 68.4682C161.28899999999996 67.4551 161.41699999999994 66.4665 161.66799999999995 65.5292C161.91799999999995 64.5975 162.29199999999994 63.7637 162.77999999999994 63.0503C163.26199999999994 62.3443 163.87199999999996 61.7666 164.59099999999995 61.3324C165.30199999999996 60.9043 166.12799999999996 60.6872 167.04699999999994 60.6872C167.87499999999994 60.6872 168.57499999999993 60.812799999999996 169.12799999999993 61.061C169.70499999999993 61.3204 170.20999999999992 61.5919 170.63099999999991 61.8693C171.07299999999992 62.1606 171.47899999999993 62.406600000000005 171.8369999999999 62.6008C172.26799999999992 62.833999999999996 172.7509999999999 62.8403 173.1649999999999 62.649499999999996C173.4259999999999 62.552 173.6569999999999 62.4152 173.8499999999999 62.24229999999999C174.0399999999999 62.071799999999996 174.1719999999999 61.92329999999999 174.26199999999992 61.76769999999999C174.30599999999993 61.67769999999999 174.36599999999993 61.53109999999999 174.4449999999999 61.32639999999999C174.5349999999999 61.08689999999999 174.5559999999999 60.79889999999999 174.5079999999999 60.476099999999995C174.45799999999988 60.09629999999999 174.2429999999999 59.676399999999994 173.85099999999989 59.1913C173.47899999999987 58.7324 172.96199999999988 58.2919 172.31499999999988 57.8825C171.6729999999999 57.4776 170.9049999999999 57.1334 170.0319999999999 56.8608C169.1549999999999 56.587199999999996 168.1819999999999 56.4488 167.1399999999999 56.4488C165.6749999999999 56.4488 164.2879999999999 56.7251 163.0199999999999 57.270199999999996C161.7509999999999 57.81719999999999 160.6359999999999 58.6151 159.7069999999999 59.6423C158.78099999999992 60.667 158.03699999999992 61.9357 157.4959999999999 63.4136C156.9559999999999 64.8889 156.6729999999999 66.5883 156.6519999999999 68.4644C156.6299999999999 70.3457 156.89899999999992 72.0534 157.4499999999999 73.5396C158.0019999999999 75.0303 158.7889999999999 76.3166 159.7909999999999 77.3637C160.79299999999992 78.41199999999999 161.9979999999999 79.2203 163.37099999999992 79.76469999999999C164.73999999999992 80.30749999999999 166.23999999999992 80.58309999999999 167.8269999999999 80.58309999999999C168.9329999999999 80.58309999999999 169.9459999999999 80.42709999999998 170.8359999999999 80.12049999999999C171.71999999999989 79.8141 172.4829999999999 79.4426 173.1039999999999 79.0148C173.7299999999999 78.58409999999999 174.2239999999999 78.1327 174.5749999999999 77.67299999999999C174.94099999999992 77.192 175.14299999999992 76.80849999999998 175.1949999999999 76.48679999999999C175.2429999999999 76.06879999999998 175.1709999999999 75.65749999999998 174.9789999999999 75.26379999999999C174.7799999999999 74.85699999999999 174.4029999999999 74.53949999999999 173.8729999999999 74.3277ZM147.368 58.2866C147.24599999999998 57.8881 146.986 57.5319 146.595 57.2275C146.201 56.9227 145.675 56.7679 145.032 56.7679C144.387 56.7679 143.86100000000002 56.9227 143.467 57.2279C143.07600000000002 57.5327 142.81500000000003 57.888799999999996 142.697 58.2795L136.273 77.47319999999999C135.942 78.4648 136.015 79.19439999999999 136.492 79.64169999999999C136.92999999999998 80.05449999999999 137.516 80.26369999999999 138.233 80.26369999999999C138.949 80.26369999999999 139.507 80.08179999999999 139.895 79.72339999999998C140.26000000000002 79.38369999999999 140.549 78.93089999999998 140.751 78.37899999999999L142.05100000000002 74.89869999999999L147.983 74.89869999999999L149.407 78.54279999999999C149.58700000000002 79.00579999999998 149.851 79.41149999999999 150.192 79.74889999999999C150.53900000000002 80.092 151.05 80.26549999999999 151.708 80.26549999999999L151.829 80.26369999999999C152.547 80.26369999999999 153.13400000000001 80.04849999999999 153.573 79.62259999999999C154.044 79.16779999999999 154.138 78.4678 153.852 77.5358ZM95.3961 56.7679C94.53920000000001 56.7679 93.92830000000001 56.9876 93.58030000000001 57.419799999999995C93.24650000000001 57.8349 93.0772 58.27499999999999 93.0772 58.72749999999999L93.0772 70.54369999999999C93.0772 71.45849999999999 93.0158 72.27949999999998 92.8948 72.98249999999999C92.7778 73.65959999999998 92.55810000000001 74.23769999999999 92.2414 74.69919999999999C91.9309 75.15249999999999 91.5044 75.50559999999999 90.9738 75.74779999999998C90.43209999999999 75.99529999999999 89.7272 76.12089999999998 88.87859999999999 76.12089999999998C88.0097 76.12089999999998 87.2897 75.99039999999998 86.7387 75.73249999999997C86.19789999999999 75.48049999999998 85.7661 75.11759999999997 85.45509999999999 74.65349999999998C85.13519999999998 74.17809999999999 84.90399999999998 73.59129999999998 84.76749999999998 72.91089999999998C84.62679999999999 72.21089999999998 84.55509999999998 71.41419999999998 84.55509999999998 70.54369999999999L84.55509999999998 58.727499999999985C84.55509999999998 58.22549999999998 84.37129999999998 57.76999999999998 84.00839999999998 57.373299999999986C83.64019999999998 56.97179999999999 83.04409999999999 56.76789999999998 82.23629999999999 56.76789999999998C81.42489999999998 56.76789999999998 80.82659999999998 56.984599999999986 80.45809999999999 57.41229999999998C80.09909999999999 57.82919999999998 79.91729999999998 58.27159999999998 79.91729999999998 58.72749999999998L79.91729999999998 72.52399999999997C79.91729999999998 73.86839999999997 80.18669999999999 75.05089999999997 80.71779999999998 76.03689999999997C81.24419999999998 77.01689999999998 81.93729999999998 77.84359999999998 82.77729999999998 78.49479999999997C83.61249999999998 79.14159999999997 84.57249999999998 79.63079999999997 85.63159999999998 79.94839999999996C86.68359999999998 80.26369999999996 87.76539999999997 80.42339999999996 88.84719999999997 80.42339999999996C89.94989999999997 80.42339999999996 91.04219999999997 80.26369999999996 92.09459999999997 79.94839999999996C93.15409999999997 79.63039999999997 94.11009999999997 79.13479999999997 94.93629999999997 78.47569999999996C95.76549999999997 77.81399999999996 96.44239999999998 76.98129999999996 96.94849999999997 76.00049999999996C97.45699999999997 75.01379999999996 97.71469999999997 73.84399999999997 97.71469999999997 72.52399999999996L97.71469999999997 58.72749999999996C97.71469999999997 58.225499999999954 97.53089999999996 57.76999999999995 97.16819999999997 57.37329999999996C96.79989999999997 56.97179999999996 96.20379999999997 56.767899999999955 95.39609999999998 56.767899999999955ZM111.71 70.3742C111.738 70.3693 111.76599999999999 70.3633 111.79299999999999 70.35770000000001L112.42399999999999 70.22840000000001C113.87299999999999 69.89620000000001 115.04299999999999 69.2082 115.90199999999999 68.18400000000001C116.76699999999998 67.153 117.20499999999998 65.65820000000001 117.20499999999998 63.74160000000001C117.20499999999998 62.496200000000016 117.03499999999998 61.43220000000001 116.69999999999999 60.58000000000001C116.359 59.71390000000001 115.84499999999998 59.01020000000001 115.17099999999999 58.488700000000016C114.505 57.97510000000002 113.66799999999999 57.607700000000015 112.68499999999999 57.397300000000016C111.72299999999998 57.19150000000001 110.606 57.08730000000001 109.36599999999999 57.08730000000001L104.65699999999998 57.08730000000001C104.10699999999999 57.08730000000001 103.64599999999999 57.115800000000014 103.28799999999998 57.17050000000001C102.89099999999998 57.233100000000015 102.58699999999999 57.35160000000001 102.35799999999998 57.533800000000014C102.11999999999998 57.723500000000016 101.95399999999998 57.99200000000001 101.86599999999997 58.330100000000016C101.78499999999997 58.633800000000015 101.74599999999997 59.01470000000002 101.74599999999997 59.49420000000001L101.74599999999997 78.30440000000002C101.74599999999997 78.75760000000001 101.91499999999996 79.19740000000002 102.24899999999997 79.61170000000001C102.59699999999997 80.0443 103.18699999999997 80.26370000000001 104.00199999999997 80.26370000000001C104.80599999999997 80.26370000000001 105.41099999999997 80.06230000000001 105.79899999999996 79.66530000000002C106.18699999999997 79.26790000000001 106.38399999999996 78.80980000000001 106.38399999999996 78.30440000000002L106.38399999999996 71.32420000000002L114.14899999999996 79.69720000000002C114.52099999999996 80.07730000000002 115.00199999999995 80.27040000000002 115.57999999999996 80.27040000000002C115.64499999999995 80.27040000000002 115.71199999999996 80.26740000000002 115.77999999999996 80.26290000000003C116.43099999999995 80.21460000000003 116.99699999999996 79.94910000000003 117.46199999999996 79.47340000000003C117.93499999999996 78.98900000000003 118.16299999999995 78.41980000000002 118.13999999999996 77.78210000000003C118.11699999999996 77.15380000000003 117.86699999999996 76.59210000000003 117.39799999999995 76.11110000000002ZM75.4492 68.9983C74.98610000000001 68.4918 74.3936 68.0123 73.68780000000001 67.5736C72.99510000000001 67.1443 72.1658 66.7087 71.22260000000001 66.2787C70.84520000000002 66.1069 70.42080000000001 65.9244 69.94930000000001 65.7317C69.4989 65.5468 69.0639 65.3189 68.65620000000001 65.05380000000001C68.25770000000001 64.7951 67.91920000000002 64.4941 67.64950000000002 64.1581C67.40070000000001 63.8492 67.27940000000002 63.493100000000005 67.27940000000002 63.07130000000001C67.27940000000002 62.81370000000001 67.33510000000003 62.54600000000001 67.44450000000002 62.275000000000006C67.55540000000002 62.0005 67.71040000000002 61.7505 67.90470000000002 61.53150000000001C68.09840000000003 61.31560000000001 68.33760000000002 61.133300000000006 68.61520000000002 60.99130000000001C69.13450000000002 60.72510000000001 69.85090000000001 60.72730000000001 70.50450000000002 60.93010000000001C70.83090000000003 61.03140000000001 71.14200000000002 61.15510000000001 71.42900000000002 61.29610000000001C71.71710000000002 61.43850000000001 71.99460000000002 61.59900000000001 72.25360000000002 61.77220000000001C72.52080000000002 61.951000000000015 72.75790000000002 62.11490000000001 72.94100000000002 62.243800000000014C73.12530000000001 62.40580000000001 73.36050000000002 62.51450000000001 73.63960000000002 62.566600000000015C73.90550000000002 62.616500000000016 74.18000000000002 62.609800000000014 74.45540000000001 62.549000000000014C74.72650000000002 62.48900000000001 74.98840000000001 62.37880000000001 75.23330000000001 62.22320000000001C75.48780000000001 62.06240000000001 75.70290000000001 61.842300000000016 75.87690000000002 61.56220000000001C76.19340000000003 61.01380000000001 76.23700000000002 60.426600000000015 76.00670000000002 59.81670000000001C75.79060000000003 59.246800000000015 75.38230000000003 58.71630000000001 74.79340000000002 58.23790000000001C74.22050000000002 57.77300000000001 73.49450000000002 57.38120000000001 72.63470000000002 57.07230000000001C71.77790000000002 56.765200000000014 70.83470000000003 56.59880000000001 69.83240000000002 56.57670000000001L69.62610000000002 56.57400000000001C68.79650000000002 56.57400000000001 67.97010000000002 56.69700000000001 67.16970000000002 56.940300000000015C66.29800000000002 57.20430000000002 65.50640000000001 57.607300000000016 64.81690000000002 58.137000000000015C64.12040000000002 58.67200000000001 63.55230000000002 59.35480000000001 63.12840000000002 60.16790000000002C62.70200000000002 60.98530000000002 62.48600000000002 61.940500000000014 62.48600000000002 63.00680000000002C62.48600000000002 64.00590000000003 62.66360000000002 64.88810000000002 63.01410000000002 65.62860000000002C63.36170000000002 66.36260000000001 63.83570000000002 67.00670000000002 64.42370000000003 67.54140000000002C65.00320000000002 68.06960000000002 65.69250000000002 68.53110000000002 66.47160000000002 68.91320000000002C67.23240000000003 69.28730000000002 68.06530000000002 69.64050000000002 68.95330000000003 69.96480000000001C69.25440000000003 70.06830000000001 69.59380000000003 70.21370000000002 69.96260000000002 70.39750000000001C70.32190000000003 70.5763 70.65710000000003 70.80350000000001 70.95900000000002 71.07270000000001C71.25630000000002 71.33810000000001 71.51500000000001 71.653 71.72800000000002 72.0092C71.92730000000002 72.3425 72.02820000000003 72.74180000000001 72.02820000000003 73.19470000000001C72.02820000000003 73.68090000000001 71.94290000000002 74.1166 71.77450000000003 74.49000000000001C71.60550000000003 74.8649 71.37850000000003 75.18060000000001 71.09970000000003 75.42770000000002C70.81640000000003 75.67920000000001 70.48580000000003 75.87530000000001 70.11660000000003 76.01070000000001C69.28710000000004 76.31770000000002 68.39840000000004 76.25320000000002 67.67770000000003 76.03690000000002C67.27090000000003 75.91580000000002 66.87890000000003 75.75570000000002 66.51270000000002 75.56300000000002C66.14330000000002 75.36880000000002 65.78750000000002 75.15060000000001 65.45480000000002 74.91330000000002C65.11010000000002 74.66770000000002 64.78120000000003 74.43710000000002 64.46420000000002 74.22080000000003C64.05400000000002 73.94940000000003 63.60910000000002 73.84030000000003 63.130200000000016 73.90400000000002C62.637000000000015 73.96930000000002 62.215100000000014 74.27780000000003 61.886800000000015 74.80680000000002C61.685800000000015 75.09020000000002 61.57800000000002 75.43630000000002 61.56630000000001 75.83560000000003C61.55410000000001 76.21650000000002 61.62960000000001 76.61280000000002 61.79080000000001 77.01240000000003C61.94830000000001 77.40610000000002 62.20380000000001 77.79670000000003 62.54930000000001 78.17320000000002C62.89440000000001 78.54990000000002 63.35770000000001 78.88770000000002 63.92210000000001 79.17600000000002C64.5347 79.50110000000002 65.2686 79.80290000000002 66.1045 80.07400000000001C66.8379 80.31130000000002 67.6255 80.43200000000002 68.4453 80.43200000000002C68.57600000000001 80.43200000000002 68.7076 80.42900000000002 68.837 80.42300000000002C71.45920000000001 80.33600000000001 73.4458 79.61320000000002 74.7416 78.27510000000001C76.0372 76.93710000000002 76.7162 75.1551 76.7595 72.9791C76.7808 72.15990000000001 76.68690000000001 71.4165 76.4798 70.7697C76.2695 70.114 75.9229 69.5183 75.44919999999999 68.9983ZM35.4462 79.6773L35.4462 74.0641L39.021 74.0641C39.6118 74.0641 40.0906 73.5295 40.0906 72.8689C40.0906 72.2083 39.6118 71.6729 39.021 71.6729L35.4362 71.6729L35.4237 69.699L42.5237 69.699C43.1145 69.699 43.5933 69.1636 43.5933 68.503C43.5933 67.8428 43.1145 67.3078 42.5237 67.3078L35.408699999999996 67.3078L35.396699999999996 65.3961L39.020999999999994 65.3961C39.611799999999995 65.3961 40.090599999999995 64.86070000000001 40.090599999999995 64.2001C40.090599999999995 63.5399 39.611799999999995 63.00450000000001 39.020999999999994 63.00450000000001L35.381699999999995 63.00450000000001L35.34759999999999 57.56340000000001L50.285799999999995 68.5514ZM190.591 75.77L183.336 75.77L183.336 70.2359L190.27900000000002 70.2359C191.02600000000004 70.2359 191.55800000000002 70.08070000000001 191.90800000000002 69.7609C192.26200000000003 69.43690000000001 192.442 68.90490000000001 192.442 68.18060000000001C192.442 67.46110000000002 192.26500000000001 66.92130000000002 191.916 66.57600000000001C191.569 66.23440000000001 191.019 66.06120000000001 190.279 66.06120000000001L183.33599999999998 66.06120000000001L183.33599999999998 61.26190000000001L190.59099999999998 61.26190000000001C191.25799999999998 61.26190000000001 191.79 61.10640000000001 192.17299999999997 60.79970000000001C192.58099999999996 60.47310000000001 192.77599999999998 59.92350000000001 192.75399999999996 59.16510000000001C192.72999999999996 58.42160000000001 192.53299999999996 57.881400000000006 192.16899999999995 57.55930000000001C191.81399999999996 57.24620000000001 191.29299999999995 57.087300000000006 190.62099999999995 57.087300000000006L180.98599999999996 57.087300000000006C180.24899999999997 57.087300000000006 179.70199999999997 57.232800000000005 179.31399999999996 57.53040000000001C178.90499999999997 57.843900000000005 178.69799999999995 58.386700000000005 178.69799999999995 59.142900000000004L178.69799999999995 77.88900000000001C178.69799999999995 78.67250000000001 178.91999999999996 79.22370000000001 179.35699999999994 79.5258C179.75799999999995 79.80330000000001 180.30599999999995 79.94420000000001 180.98599999999993 79.94420000000001L190.59099999999992 79.94420000000001C191.45299999999992 79.94420000000001 192.06099999999992 79.79950000000001 192.44899999999993 79.50150000000001C192.85799999999992 79.18690000000001 193.06499999999994 78.63390000000001 193.06499999999994 77.8567C193.06499999999994 77.08030000000001 192.85799999999995 76.5269 192.44899999999993 76.2131C192.06099999999992 75.9151 191.45299999999992 75.77 190.59099999999992 75.77ZM133.774 57.0873L124.138 57.0873C123.40100000000001 57.0873 122.854 57.2328 122.46600000000001 57.5304C122.057 57.8439 121.85000000000001 58.3867 121.85000000000001 59.1429L121.85000000000001 78.6553C121.85000000000001 79.0388 122.034 79.40769999999999 122.39500000000001 79.75189999999999C122.75600000000001 80.09609999999999 123.32600000000001 80.26369999999999 124.138 80.26369999999999C124.94500000000001 80.26369999999999 125.524 80.09869999999998 125.90400000000001 79.75899999999999C126.29200000000002 79.41339999999998 126.48800000000001 79.04179999999998 126.48800000000001 78.65529999999998L126.48800000000001 70.23589999999999L132.80700000000002 70.23589999999999C133.55400000000003 70.23589999999999 134.08700000000002 70.0807 134.436 69.76089999999999C134.791 69.4369 134.97 68.9049 134.97 68.1806C134.97 67.48479999999999 134.795 66.9513 134.427 66.5763C134.021 66.23440000000001 133.476 66.0612 132.807 66.0612L126.48799999999999 66.0612L126.48799999999999 61.2619L133.743 61.2619C134.41 61.2619 134.942 61.106399999999994 135.325 60.799699999999994C135.73399999999998 60.47239999999999 135.929 59.92309999999999 135.90599999999998 59.165099999999995C135.88199999999998 58.4216 135.68499999999997 57.88139999999999 135.32099999999997 57.55929999999999C134.96599999999998 57.246199999999995 134.44599999999997 57.08729999999999 133.77399999999997 57.08729999999999ZM106.384 66.3806L106.384 61.326100000000004L109.366 61.326100000000004C109.804 61.326100000000004 110.234 61.362 110.642 61.4333C111.03 61.5011 111.37299999999999 61.627500000000005 111.66199999999999 61.8082C111.94099999999999 61.9844 112.157 62.224 112.32 62.54C112.484 62.8572 112.567 63.2722 112.567 63.7739C112.567 64.84949999999999 112.315 65.5536 111.817 65.8659C111.27499999999999 66.207 110.44999999999999 66.3806 109.366 66.3806ZM143.026 70.6921L145.032 64.079L147.036 70.6921ZM206.557 57.1514L203.438 57.1514C202.922 57.1514 202.53099999999998 57.346000000000004 202.27599999999998 57.7295C202.04299999999998 58.0812 201.92999999999998 58.6582 201.92999999999998 59.4942C201.92999999999998 60.378299999999996 202.01199999999997 60.9335 202.188 61.2406C202.326 61.4839 202.62199999999999 61.773 203.25099999999998 61.773L204.48699999999997 61.773L204.48699999999997 78.71940000000001C204.48699999999997 79.4239 204.87899999999996 80.26370000000001 206.74399999999997 80.26370000000001C208.60799999999998 80.26370000000001 208.99999999999997 79.42390000000002 208.99999999999997 78.71940000000001L208.99999999999997 59.11110000000001C208.99999999999997 58.21730000000001 208.57599999999996 57.15140000000001 206.55699999999996 57.15140000000001Z " fill="#ffffff" transform="matrix(1,0,0,1,-20,-52)"></path></svg>